<?xml version="1.0" encoding="UTF-8" standalone="no"?>
<!DOCTYPE svg PUBLIC "-//W3C//DTD SVG 1.1//EN"
 "http://www.w3.org/Graphics/SVG/1.1/DTD/svg11.dtd">
<!-- Generated by graphviz version 2.38.0 (20140413.2041)
 -->
<!-- Title: G Pages: 1 -->
<svg width="601pt" height="408pt"
 viewBox="0.00 0.00 601.16 407.95" xmlns="http://www.w3.org/2000/svg" xmlns:xlink="http://www.w3.org/1999/xlink">
<g id="graph0" class="graph" transform="scale(1 1) rotate(0) translate(4 403.953)">
<title>G</title>
<polygon fill="white" stroke="none" points="-4,4 -4,-403.953 597.161,-403.953 597.161,4 -4,4"/>
<!-- A0 -->
<g id="node1" class="node"><title>A0</title>
<polygon fill="beige" stroke="black" points="88.9264,-140 17.0036,-140 17.0036,-104 94.9264,-104 94.9264,-134 88.9264,-140"/>
<polyline fill="none" stroke="black" points="88.9264,-140 88.9264,-134 "/>
<polyline fill="none" stroke="black" points="94.9264,-134 88.9264,-134 "/>
<text text-anchor="middle" x="55.965" y="-119" font-family="Helvetica,sans-Serif" font-size="10.00">Cutie Shop</text>
</g>
<!-- A1 -->
<g id="node2" class="node"><title>A1</title>
<g transform="translate(55.965,-191)" style="fill:none;stroke:black;stroke-width:1px"><circle cx="0" cy="-20" r="7.5" />
                <line x1="0" y1="-12.5" x2="0" y2="5" />
                <line x1="-15" y1="-5" x2="15" y2="-5" />
                <line x1="0" y1="5" x2="-15" y2="17" />
                <line x1="0" y1="5" x2="15" y2="17" /></g>
<text text-anchor="middle" x="55.965" y="-166" font-family="Helvetica,sans-Serif" font-size="10.00">Khach hang</text>
</g>
<!-- A2 -->
<g id="node3" class="node"><title>A2</title>
<ellipse fill="none" stroke="black" cx="246.787" cy="-72" rx="68.1065" ry="18"/>
<text text-anchor="middle" x="246.787" y="-69" font-family="Helvetica,sans-Serif" font-size="10.00">Dang ky thanh vien</text>
</g>
<!-- A1&#45;&gt;A2 -->
<g id="edge1" class="edge"><title>A1&#45;&gt;A2</title>
<path fill="none" stroke="black" d="M101.65,-157.985C105.161,-154.983 108.624,-151.963 111.93,-149 135.568,-127.813 135.79,-115.463 162.93,-99 173.02,-92.8796 184.653,-87.9824 195.952,-84.131"/>
</g>
<!-- A3 -->
<g id="node4" class="node"><title>A3</title>
<ellipse fill="none" stroke="black" cx="246.787" cy="-361" rx="46.5003" ry="18"/>
<text text-anchor="middle" x="246.787" y="-358" font-family="Helvetica,sans-Serif" font-size="10.00">Dang nhap</text>
</g>
<!-- A1&#45;&gt;A3 -->
<g id="edge2" class="edge"><title>A1&#45;&gt;A3</title>
<path fill="none" stroke="black" d="M75.9955,-230.303C94.314,-261.926 124.819,-306.853 162.93,-334 175.376,-342.866 190.898,-348.938 205.132,-353.042"/>
</g>
<!-- A5 -->
<g id="node6" class="node"><title>A5</title>
<ellipse fill="none" stroke="black" cx="246.787" cy="-307" rx="44.4846" ry="18"/>
<text text-anchor="middle" x="246.787" y="-304" font-family="Helvetica,sans-Serif" font-size="10.00">Dang xuat</text>
</g>
<!-- A1&#45;&gt;A5 -->
<g id="edge4" class="edge"><title>A1&#45;&gt;A5</title>
<path fill="none" stroke="black" d="M94.736,-230.378C113.941,-247.32 138.373,-266.636 162.93,-280 177.016,-287.666 193.643,-293.613 208.291,-297.949"/>
</g>
<!-- A6 -->
<g id="node7" class="node"><title>A6</title>
<ellipse fill="none" stroke="black" cx="246.787" cy="-18" rx="58.8923" ry="18"/>
<text text-anchor="middle" x="246.787" y="-15" font-family="Helvetica,sans-Serif" font-size="10.00">Dat hang online</text>
</g>
<!-- A1&#45;&gt;A6 -->
<g id="edge6" class="edge"><title>A1&#45;&gt;A6</title>
<path fill="none" stroke="black" d="M104.203,-157.762C106.949,-154.926 109.555,-151.996 111.93,-149 143.913,-108.659 124.055,-78.7495 162.93,-45 172.298,-36.8669 184.166,-31.1739 195.971,-27.1922"/>
</g>
<!-- A7 -->
<g id="node8" class="node"><title>A7</title>
<ellipse fill="none" stroke="black" cx="246.787" cy="-253" rx="65.0824" ry="18"/>
<text text-anchor="middle" x="246.787" y="-250" font-family="Helvetica,sans-Serif" font-size="10.00">Tra cuu san pham</text>
</g>
<!-- A1&#45;&gt;A7 -->
<g id="edge7" class="edge"><title>A1&#45;&gt;A7</title>
<path fill="none" stroke="black" d="M112.088,-211.224C141.043,-220.271 175.999,-231.194 202.905,-239.601"/>
</g>
<!-- A9 -->
<g id="node10" class="node"><title>A9</title>
<ellipse fill="none" stroke="black" cx="246.787" cy="-194" rx="77.3264" ry="22.7556"/>
<text text-anchor="middle" x="246.787" y="-197" font-family="Helvetica,sans-Serif" font-size="10.00">Tich luy va tra cuu</text>
<text text-anchor="middle" x="246.787" y="-185" font-family="Helvetica,sans-Serif" font-size="10.00">diem</text>
</g>
<!-- A1&#45;&gt;A9 -->
<g id="edge10" class="edge"><title>A1&#45;&gt;A9</title>
<path fill="none" stroke="black" d="M112.088,-194C130.049,-194 150.318,-194 169.544,-194"/>
</g>
<!-- A10 -->
<g id="node11" class="node"><title>A10</title>
<ellipse fill="none" stroke="black" cx="246.787" cy="-131" rx="83.7132" ry="22.7556"/>
<text text-anchor="middle" x="246.787" y="-134" font-family="Helvetica,sans-Serif" font-size="10.00">Dung diem tich luy</text>
<text text-anchor="middle" x="246.787" y="-122" font-family="Helvetica,sans-Serif" font-size="10.00">de giam gia hoa don</text>
</g>
<!-- A1&#45;&gt;A10 -->
<g id="edge11" class="edge"><title>A1&#45;&gt;A10</title>
<path fill="none" stroke="black" d="M112.088,-175.608C137.668,-167.073 167.933,-156.976 193.192,-148.548"/>
</g>
<!-- A4 -->
<g id="node5" class="node"><title>A4</title>
<g transform="translate(55.965,-330)" style="fill:none;stroke:black;stroke-width:1px"><circle cx="0" cy="-20" r="7.5" />
                <line x1="0" y1="-12.5" x2="0" y2="5" />
                <line x1="-15" y1="-5" x2="15" y2="-5" />
                <line x1="0" y1="5" x2="-15" y2="17" />
                <line x1="0" y1="5" x2="15" y2="17" /></g>
<text text-anchor="middle" x="55.965" y="-305" font-family="Helvetica,sans-Serif" font-size="10.00">Nhan vien</text>
</g>
<!-- A4&#45;&gt;A3 -->
<g id="edge3" class="edge"><title>A4&#45;&gt;A3</title>
<path fill="none" stroke="black" d="M107.724,-340.641C117.419,-342.094 127.488,-343.598 136.93,-345 158.753,-348.241 183.043,-351.815 203.131,-354.761"/>
</g>
<!-- A4&#45;&gt;A5 -->
<g id="edge5" class="edge"><title>A4&#45;&gt;A5</title>
<path fill="none" stroke="black" d="M107.566,-326.032C137.935,-321.851 176.074,-316.599 204.593,-312.672"/>
</g>
<!-- A4&#45;&gt;A7 -->
<g id="edge8" class="edge"><title>A4&#45;&gt;A7</title>
<path fill="none" stroke="black" d="M107.725,-305.691C124.99,-296.921 144.566,-287.535 162.93,-280 175.247,-274.946 188.887,-270.176 201.484,-266.092"/>
</g>
<!-- A11 -->
<g id="node12" class="node"><title>A11</title>
<ellipse fill="none" stroke="black" cx="514.417" cy="-359" rx="78.989" ry="22.7556"/>
<text text-anchor="middle" x="514.417" y="-362" font-family="Helvetica,sans-Serif" font-size="10.00">Theo doi tinh trang</text>
<text text-anchor="middle" x="514.417" y="-350" font-family="Helvetica,sans-Serif" font-size="10.00">don hang</text>
</g>
<!-- A4&#45;&gt;A11 -->
<g id="edge13" class="edge"><title>A4&#45;&gt;A11</title>
<path fill="none" stroke="black" d="M107.553,-365.505C124.482,-374.646 143.901,-383.356 162.93,-388 264.508,-412.791 387.024,-391.437 457.011,-374.582"/>
</g>
<!-- A6&#45;&gt;A11 -->
<g id="edge12" class="edge"><title>A6&#45;&gt;A11</title>
<path fill="none" stroke="black" stroke-dasharray="5,2" d="M298.237,-27.1094C309.894,-31.0895 321.534,-36.8026 330.643,-45 415.682,-121.525 371.186,-185.506 435.673,-280 448.235,-298.408 465.342,-316.328 480.311,-330.435"/>
<polygon fill="black" stroke="black" points="487.909,-337.447 477.508,-333.972 484.234,-334.056 480.56,-330.665 480.56,-330.665 480.56,-330.665 484.234,-334.056 483.612,-327.358 487.909,-337.447 487.909,-337.447"/>
<text text-anchor="middle" x="383.158" y="-234" font-family="Helvetica,sans-Serif" font-size="10.00">&lt;&lt;include&gt;&gt;</text>
</g>
<!-- A8 -->
<g id="node9" class="node"><title>A8</title>
<ellipse fill="none" stroke="black" cx="514.417" cy="-253" rx="66.9372" ry="18"/>
<text text-anchor="middle" x="514.417" y="-250" font-family="Helvetica,sans-Serif" font-size="10.00">So sanh san pham</text>
</g>
<!-- A7&#45;&gt;A8 -->
<g id="edge9" class="edge"><title>A7&#45;&gt;A8</title>
<path fill="none" stroke="black" stroke-dasharray="5,2" d="M322.155,-253C361.496,-253 409.383,-253 447.398,-253"/>
<polygon fill="black" stroke="black" points="312.088,-253 322.088,-248.5 317.088,-253 322.088,-253 322.088,-253 322.088,-253 317.088,-253 322.088,-257.5 312.088,-253 312.088,-253"/>
<text text-anchor="middle" x="383.158" y="-256" font-family="Helvetica,sans-Serif" font-size="10.00">&lt;&lt;extend&gt;&gt;</text>
</g>
</g>
</svg>
