<?xml version="1.0" encoding="UTF-8" standalone="no"?>
<!DOCTYPE svg PUBLIC "-//W3C//DTD SVG 1.1//EN"
 "http://www.w3.org/Graphics/SVG/1.1/DTD/svg11.dtd">
<!-- Generated by graphviz version 2.38.0 (20140413.2041)
 -->
<!-- Title: G Pages: 1 -->
<svg width="510pt" height="401pt"
 viewBox="0.00 0.00 509.71 401.00" xmlns="http://www.w3.org/2000/svg" xmlns:xlink="http://www.w3.org/1999/xlink">
<g id="graph0" class="graph" transform="scale(1 1) rotate(0) translate(4 397)">
<title>G</title>
<polygon fill="white" stroke="none" points="-4,4 -4,-397 505.707,-397 505.707,4 -4,4"/>
<!-- A0 -->
<g id="node1" class="node"><title>A0</title>
<polygon fill="beige" stroke="black" points="83.622,-36 35.622,-36 35.622,-0 89.622,-0 89.622,-30 83.622,-36"/>
<polyline fill="none" stroke="black" points="83.622,-36 83.622,-30 "/>
<polyline fill="none" stroke="black" points="89.622,-30 83.622,-30 "/>
<text text-anchor="middle" x="62.622" y="-15" font-family="Helvetica,sans-Serif" font-size="10.00">Cutie</text>
</g>
<!-- A1 -->
<g id="node2" class="node"><title>A1</title>
<g transform="translate(62.622,-254)" style="fill:none;stroke:black;stroke-width:1px"><circle cx="0" cy="-20" r="7.5" />
                <line x1="0" y1="-12.5" x2="0" y2="5" />
                <line x1="-15" y1="-5" x2="15" y2="-5" />
                <line x1="0" y1="5" x2="-15" y2="17" />
                <line x1="0" y1="5" x2="15" y2="17" /></g>
<text text-anchor="middle" x="62.622" y="-229" font-family="Helvetica,sans-Serif" font-size="10.00">User</text>
</g>
<!-- A2 -->
<g id="node3" class="node"><title>A2</title>
<ellipse fill="none" stroke="black" cx="253.199" cy="-203" rx="31.5864" ry="18"/>
<text text-anchor="middle" x="253.199" y="-200" font-family="Helvetica,sans-Serif" font-size="10.00">Login</text>
</g>
<!-- A1&#45;&gt;A2 -->
<g id="edge1" class="edge"><title>A1&#45;&gt;A2</title>
<path fill="none" stroke="black" d="M102.695,-245.811C139.159,-235.37 192.634,-220.057 224.769,-210.855"/>
</g>
<!-- A6 -->
<g id="node7" class="node"><title>A6</title>
<ellipse fill="none" stroke="black" cx="253.199" cy="-149" rx="51.0064" ry="18"/>
<text text-anchor="middle" x="253.199" y="-146" font-family="Helvetica,sans-Serif" font-size="10.00">Upload Docs</text>
</g>
<!-- A1&#45;&gt;A6 -->
<g id="edge6" class="edge"><title>A1&#45;&gt;A6</title>
<path fill="none" stroke="black" d="M102.341,-224.598C123.023,-208.432 149.475,-189.501 175.244,-176 187.033,-169.824 200.54,-164.543 212.914,-160.332"/>
</g>
<!-- A8 -->
<g id="node9" class="node"><title>A8</title>
<ellipse fill="none" stroke="black" cx="253.199" cy="-316" rx="71.0337" ry="22.7556"/>
<text text-anchor="middle" x="253.199" y="-319" font-family="Helvetica,sans-Serif" font-size="10.00">Full Text Search</text>
<text text-anchor="middle" x="253.199" y="-307" font-family="Helvetica,sans-Serif" font-size="10.00">Docs</text>
</g>
<!-- A1&#45;&gt;A8 -->
<g id="edge7" class="edge"><title>A1&#45;&gt;A8</title>
<path fill="none" stroke="black" d="M102.695,-269.225C131.392,-278.203 170.624,-290.478 201.699,-300.2"/>
</g>
<!-- A11 -->
<g id="node12" class="node"><title>A11</title>
<ellipse fill="none" stroke="black" cx="253.199" cy="-375" rx="52.0041" ry="18"/>
<text text-anchor="middle" x="253.199" y="-372" font-family="Helvetica,sans-Serif" font-size="10.00">Browse Docs</text>
</g>
<!-- A1&#45;&gt;A11 -->
<g id="edge10" class="edge"><title>A1&#45;&gt;A11</title>
<path fill="none" stroke="black" d="M101.229,-293.217C121.817,-311.549 148.524,-333.029 175.244,-348 186.608,-354.367 199.743,-359.645 211.908,-363.794"/>
</g>
<!-- A13 -->
<g id="node14" class="node"><title>A13</title>
<ellipse fill="none" stroke="black" cx="253.199" cy="-257" rx="49.8354" ry="18"/>
<text text-anchor="middle" x="253.199" y="-254" font-family="Helvetica,sans-Serif" font-size="10.00">View Events</text>
</g>
<!-- A1&#45;&gt;A13 -->
<g id="edge13" class="edge"><title>A1&#45;&gt;A13</title>
<path fill="none" stroke="black" d="M102.695,-257C131.823,-257 171.806,-257 203.095,-257"/>
</g>
<!-- A3 -->
<g id="node4" class="node"><title>A3</title>
<g transform="translate(62.622,-87)" style="fill:none;stroke:black;stroke-width:1px"><circle cx="0" cy="-20" r="7.5" />
                <line x1="0" y1="-12.5" x2="0" y2="5" />
                <line x1="-15" y1="-5" x2="15" y2="-5" />
                <line x1="0" y1="5" x2="-15" y2="17" />
                <line x1="0" y1="5" x2="15" y2="17" /></g>
<text text-anchor="middle" x="62.622" y="-62" font-family="Helvetica,sans-Serif" font-size="10.00">Site Maintainer</text>
</g>
<!-- A4 -->
<g id="node5" class="node"><title>A4</title>
<ellipse fill="none" stroke="black" cx="253.199" cy="-31" rx="41.7943" ry="18"/>
<text text-anchor="middle" x="253.199" y="-28" font-family="Helvetica,sans-Serif" font-size="10.00">Add User</text>
</g>
<!-- A3&#45;&gt;A4 -->
<g id="edge2" class="edge"><title>A3&#45;&gt;A4</title>
<path fill="none" stroke="black" d="M125.369,-70.6812C156.52,-60.9351 193.072,-49.4991 218.913,-41.4143"/>
</g>
<!-- A3&#45;&gt;A6 -->
<g id="edge4" class="edge"><title>A3&#45;&gt;A6</title>
<path fill="none" stroke="black" d="M125.369,-109.319C154.694,-118.494 188.805,-129.166 214.261,-137.13"/>
</g>
<!-- A12 -->
<g id="node13" class="node"><title>A12</title>
<ellipse fill="none" stroke="black" cx="253.199" cy="-90" rx="77.91" ry="22.7556"/>
<text text-anchor="middle" x="253.199" y="-93" font-family="Helvetica,sans-Serif" font-size="10.00">Post New Event to</text>
<text text-anchor="middle" x="253.199" y="-81" font-family="Helvetica,sans-Serif" font-size="10.00">the Web Site</text>
</g>
<!-- A3&#45;&gt;A12 -->
<g id="edge12" class="edge"><title>A3&#45;&gt;A12</title>
<path fill="none" stroke="black" d="M125.369,-90C141.267,-90 158.571,-90 175.14,-90"/>
</g>
<!-- A5 -->
<g id="node6" class="node"><title>A5</title>
<ellipse fill="none" stroke="black" cx="441.43" cy="-31" rx="54.8645" ry="18"/>
<text text-anchor="middle" x="441.43" y="-28" font-family="Helvetica,sans-Serif" font-size="10.00">Add Company</text>
</g>
<!-- A4&#45;&gt;A5 -->
<g id="edge3" class="edge"><title>A4&#45;&gt;A5</title>
<path fill="none" stroke="black" stroke-dasharray="5,2" d="M305.605,-31C330.748,-31 361.004,-31 386.479,-31"/>
<polygon fill="black" stroke="black" points="295.53,-31 305.53,-26.5001 300.53,-31 305.53,-31.0001 305.53,-31.0001 305.53,-31.0001 300.53,-31 305.53,-35.5001 295.53,-31 295.53,-31"/>
</g>
<!-- A7 -->
<g id="node8" class="node"><title>A7</title>
<ellipse fill="none" stroke="black" cx="441.43" cy="-149" rx="60.0534" ry="18"/>
<text text-anchor="middle" x="441.43" y="-146" font-family="Helvetica,sans-Serif" font-size="10.00">Manage Folders</text>
</g>
<!-- A6&#45;&gt;A7 -->
<g id="edge5" class="edge"><title>A6&#45;&gt;A7</title>
<path fill="none" stroke="black" stroke-dasharray="5,2" d="M314.802,-149C336.063,-149 359.91,-149 381.069,-149"/>
<polygon fill="black" stroke="black" points="304.596,-149 314.596,-144.5 309.596,-149 314.596,-149 314.596,-149 314.596,-149 309.596,-149 314.596,-153.5 304.596,-149 304.596,-149"/>
</g>
<!-- A9 -->
<g id="node10" class="node"><title>A9</title>
<ellipse fill="none" stroke="black" cx="441.43" cy="-372" rx="50.6584" ry="18"/>
<text text-anchor="middle" x="441.43" y="-369" font-family="Helvetica,sans-Serif" font-size="10.00">Preview Doc</text>
</g>
<!-- A8&#45;&gt;A9 -->
<g id="edge8" class="edge"><title>A8&#45;&gt;A9</title>
<path fill="none" stroke="black" stroke-dasharray="5,2" d="M305.58,-331.45C332.693,-339.603 365.757,-349.546 392.36,-357.545"/>
<polygon fill="black" stroke="black" points="402.213,-360.508 391.341,-361.938 397.425,-359.068 392.637,-357.628 392.637,-357.628 392.637,-357.628 397.425,-359.068 393.933,-353.319 402.213,-360.508 402.213,-360.508"/>
</g>
<!-- A10 -->
<g id="node11" class="node"><title>A10</title>
<ellipse fill="none" stroke="black" cx="441.43" cy="-316" rx="58.8731" ry="18"/>
<text text-anchor="middle" x="441.43" y="-313" font-family="Helvetica,sans-Serif" font-size="10.00">Download Docs</text>
</g>
<!-- A8&#45;&gt;A10 -->
<g id="edge9" class="edge"><title>A8&#45;&gt;A10</title>
<path fill="none" stroke="black" stroke-dasharray="5,2" d="M324.605,-316C340.237,-316 356.777,-316 372.315,-316"/>
<polygon fill="black" stroke="black" points="382.361,-316 372.361,-320.5 377.361,-316 372.361,-316 372.361,-316 372.361,-316 377.361,-316 372.361,-311.5 382.361,-316 382.361,-316"/>
</g>
<!-- A11&#45;&gt;A9 -->
<g id="edge11" class="edge"><title>A11&#45;&gt;A9</title>
<path fill="none" stroke="black" stroke-dasharray="5,2" d="M305.58,-374.172C328.849,-373.797 356.502,-373.352 380.691,-372.962"/>
<polygon fill="black" stroke="black" points="390.823,-372.799 380.897,-377.46 385.823,-372.88 380.824,-372.96 380.824,-372.96 380.824,-372.96 385.823,-372.88 380.752,-368.461 390.823,-372.799 390.823,-372.799"/>
</g>
</g>
</svg>
