<?xml version="1.0" encoding="UTF-8" standalone="no"?>
<!DOCTYPE svg PUBLIC "-//W3C//DTD SVG 1.1//EN"
 "http://www.w3.org/Graphics/SVG/1.1/DTD/svg11.dtd">
<!-- Generated by graphviz version 2.38.0 (20140413.2041)
 -->
<!-- Title: G Pages: 1 -->
<svg width="1323pt" height="514pt"
 viewBox="0.00 0.00 1322.68 514.00" xmlns="http://www.w3.org/2000/svg" xmlns:xlink="http://www.w3.org/1999/xlink">
<g id="graph0" class="graph" transform="scale(1 1) rotate(0) translate(4 510)">
<title>G</title>
<polygon fill="white" stroke="none" points="-4,4 -4,-510 1318.68,-510 1318.68,4 -4,4"/>
<!-- A0 -->
<g id="node1" class="node"><title>A0</title>
<polygon fill="cornsilk" stroke="black" points="118.197,-473.5 -0.0655692,-473.5 -0.0655692,-437.5 124.197,-437.5 124.197,-467.5 118.197,-473.5"/>
<polyline fill="none" stroke="black" points="118.197,-473.5 118.197,-467.5 "/>
<polyline fill="none" stroke="black" points="124.197,-467.5 118.197,-467.5 "/>
<text text-anchor="middle" x="62.0655" y="-458.5" font-family="Helvetica,sans-Serif" font-size="10.00">Diagram for database</text>
<text text-anchor="middle" x="62.0655" y="-446.5" font-family="Helvetica,sans-Serif" font-size="10.00">designing</text>
</g>
<!-- A1 -->
<g id="node2" class="node"><title>A1</title>
<polygon fill="cornsilk" stroke="black" points="255.74,-477.5 142.391,-477.5 142.391,-433.5 261.74,-433.5 261.74,-471.5 255.74,-477.5"/>
<polyline fill="none" stroke="black" points="255.74,-477.5 255.74,-471.5 "/>
<polyline fill="none" stroke="black" points="261.74,-471.5 255.74,-471.5 "/>
<text text-anchor="middle" x="202.065" y="-464.5" font-family="Helvetica,sans-Serif" font-size="10.00">Primary keys are the</text>
<text text-anchor="middle" x="202.065" y="-452.5" font-family="Helvetica,sans-Serif" font-size="10.00">one in the bracket</text>
<text text-anchor="middle" x="202.065" y="-440.5" font-family="Helvetica,sans-Serif" font-size="10.00">()</text>
</g>
<!-- A2 -->
<g id="node3" class="node"><title>A2</title>
<polygon fill="#ffd700" stroke="black" points="402.097,-489.5 280.034,-489.5 280.034,-421.5 408.097,-421.5 408.097,-483.5 402.097,-489.5"/>
<polyline fill="none" stroke="black" points="402.097,-489.5 402.097,-483.5 "/>
<polyline fill="none" stroke="black" points="408.097,-483.5 402.097,-483.5 "/>
<text text-anchor="middle" x="344.065" y="-476.5" font-family="Helvetica,sans-Serif" font-size="10.00">Do not use plural</text>
<text text-anchor="middle" x="344.065" y="-464.5" font-family="Helvetica,sans-Serif" font-size="10.00">noun for entity</text>
<text text-anchor="middle" x="344.065" y="-452.5" font-family="Helvetica,sans-Serif" font-size="10.00">name. Id column must</text>
<text text-anchor="middle" x="344.065" y="-440.5" font-family="Helvetica,sans-Serif" font-size="10.00">be generated by GUID</text>
<text text-anchor="middle" x="344.065" y="-428.5" font-family="Helvetica,sans-Serif" font-size="10.00">(string)</text>
</g>
<!-- A3 -->
<g id="node4" class="node"><title>A3</title>
<polygon fill="none" stroke="black" points="1079.06,-405.5 1079.06,-505.5 1157.07,-505.5 1157.07,-405.5 1079.06,-405.5"/>
<text text-anchor="middle" x="1118.07" y="-492.5" font-family="Helvetica,sans-Serif" font-size="10.00">Good</text>
<polyline fill="none" stroke="black" points="1079.06,-485.5 1157.07,-485.5 "/>
<text text-anchor="middle" x="1118.07" y="-472.5" font-family="Helvetica,sans-Serif" font-size="10.00">(Id)</text>
<text text-anchor="middle" x="1118.07" y="-460.5" font-family="Helvetica,sans-Serif" font-size="10.00">Image</text>
<text text-anchor="middle" x="1118.07" y="-448.5" font-family="Helvetica,sans-Serif" font-size="10.00">Name</text>
<text text-anchor="middle" x="1118.07" y="-436.5" font-family="Helvetica,sans-Serif" font-size="10.00">Description</text>
<text text-anchor="middle" x="1118.07" y="-424.5" font-family="Helvetica,sans-Serif" font-size="10.00">Price</text>
<text text-anchor="middle" x="1118.07" y="-412.5" font-family="Helvetica,sans-Serif" font-size="10.00">Quantity</text>
</g>
<!-- A4 -->
<g id="node5" class="node"><title>A4</title>
<polygon fill="none" stroke="black" points="907.386,-284.5 907.386,-324.5 998.744,-324.5 998.744,-284.5 907.386,-284.5"/>
<text text-anchor="middle" x="953.065" y="-311.5" font-family="Helvetica,sans-Serif" font-size="10.00">ShipableGood</text>
<polyline fill="none" stroke="black" points="907.386,-304.5 998.744,-304.5 "/>
<text text-anchor="middle" x="953.065" y="-291.5" font-family="Helvetica,sans-Serif" font-size="10.00">(Id)</text>
</g>
<!-- A3&#45;&gt;A4 -->
<g id="edge1" class="edge"><title>A3&#45;&gt;A4</title>
<path fill="none" stroke="black" d="M1071.47,-412.419C1042.64,-386.39 1006.56,-353.803 981.845,-331.489"/>
<polygon fill="black" stroke="black" points="1078.96,-419.189 1068.53,-415.827 1075.25,-415.838 1071.54,-412.487 1071.54,-412.487 1071.54,-412.487 1075.25,-415.838 1074.56,-409.147 1078.96,-419.189 1078.96,-419.189"/>
<polygon fill="black" stroke="black" points="974.246,-324.627 984.684,-327.989 977.957,-327.978 981.668,-331.329 981.668,-331.329 981.668,-331.329 977.957,-327.978 978.652,-334.669 974.246,-324.627 974.246,-324.627"/>
<text text-anchor="middle" x="993.364" y="-327.502" font-family="Helvetica,sans-Serif" font-size="10.00">1</text>
<text text-anchor="middle" x="1059.85" y="-410.314" font-family="Helvetica,sans-Serif" font-size="10.00">1</text>
</g>
<!-- A5 -->
<g id="node6" class="node"><title>A5</title>
<polygon fill="none" stroke="black" points="1127.78,-103.5 1127.78,-203.5 1226.35,-203.5 1226.35,-103.5 1127.78,-103.5"/>
<text text-anchor="middle" x="1177.07" y="-190.5" font-family="Helvetica,sans-Serif" font-size="10.00">Pet</text>
<polyline fill="none" stroke="black" points="1127.78,-183.5 1226.35,-183.5 "/>
<text text-anchor="middle" x="1177.07" y="-170.5" font-family="Helvetica,sans-Serif" font-size="10.00">(Id)</text>
<text text-anchor="middle" x="1177.07" y="-158.5" font-family="Helvetica,sans-Serif" font-size="10.00">Size</text>
<text text-anchor="middle" x="1177.07" y="-146.5" font-family="Helvetica,sans-Serif" font-size="10.00">Longevity</text>
<text text-anchor="middle" x="1177.07" y="-134.5" font-family="Helvetica,sans-Serif" font-size="10.00">MaxChild</text>
<text text-anchor="middle" x="1177.07" y="-122.5" font-family="Helvetica,sans-Serif" font-size="10.00">FurDrop</text>
<text text-anchor="middle" x="1177.07" y="-110.5" font-family="Helvetica,sans-Serif" font-size="10.00">FeedingRoutine</text>
</g>
<!-- A3&#45;&gt;A5 -->
<g id="edge2" class="edge"><title>A3&#45;&gt;A5</title>
<path fill="none" stroke="black" d="M1119.23,-395.04C1121.1,-354.75 1125.75,-300.571 1137.07,-254 1140.36,-240.461 1145.14,-226.335 1150.26,-213.122"/>
<polygon fill="black" stroke="black" points="1118.8,-405.232 1114.73,-395.051 1119.01,-400.236 1119.22,-395.241 1119.22,-395.241 1119.22,-395.241 1119.01,-400.236 1123.72,-395.43 1118.8,-405.232 1118.8,-405.232"/>
<polygon fill="black" stroke="black" points="1154.04,-203.683 1154.5,-214.64 1152.18,-208.326 1150.33,-212.968 1150.33,-212.968 1150.33,-212.968 1152.18,-208.326 1146.15,-211.297 1154.04,-203.683 1154.04,-203.683"/>
<text text-anchor="middle" x="1155.16" y="-220.652" font-family="Helvetica,sans-Serif" font-size="10.00">1</text>
<text text-anchor="middle" x="1111.12" y="-383.766" font-family="Helvetica,sans-Serif" font-size="10.00">1</text>
</g>
<!-- A14 -->
<g id="node15" class="node"><title>A14</title>
<polygon fill="none" stroke="black" points="1146.4,-278.5 1146.4,-330.5 1207.73,-330.5 1207.73,-278.5 1146.4,-278.5"/>
<text text-anchor="middle" x="1177.07" y="-317.5" font-family="Helvetica,sans-Serif" font-size="10.00">Service</text>
<polyline fill="none" stroke="black" points="1146.4,-310.5 1207.73,-310.5 "/>
<text text-anchor="middle" x="1177.07" y="-297.5" font-family="Helvetica,sans-Serif" font-size="10.00">(Id)</text>
<text text-anchor="middle" x="1177.07" y="-285.5" font-family="Helvetica,sans-Serif" font-size="10.00">Pet</text>
</g>
<!-- A3&#45;&gt;A14 -->
<g id="edge7" class="edge"><title>A3&#45;&gt;A14</title>
<path fill="none" stroke="black" d="M1141.32,-395.778C1148.72,-377.092 1156.67,-357.019 1163.18,-340.556"/>
<polygon fill="black" stroke="black" points="1137.55,-405.299 1137.05,-394.345 1139.39,-400.65 1141.23,-396.001 1141.23,-396.001 1141.23,-396.001 1139.39,-400.65 1145.41,-397.658 1137.55,-405.299 1137.55,-405.299"/>
<polygon fill="black" stroke="black" points="1167.04,-330.817 1167.54,-341.771 1165.2,-335.465 1163.36,-340.114 1163.36,-340.114 1163.36,-340.114 1165.2,-335.465 1159.18,-338.458 1167.04,-330.817 1167.04,-330.817"/>
<text text-anchor="middle" x="1168.23" y="-347.782" font-family="Helvetica,sans-Serif" font-size="10.00">1</text>
<text text-anchor="middle" x="1136.36" y="-382.334" font-family="Helvetica,sans-Serif" font-size="10.00">1</text>
</g>
<!-- A6 -->
<g id="node7" class="node"><title>A6</title>
<polygon fill="none" stroke="black" points="791.007,-115.5 791.007,-191.5 865.123,-191.5 865.123,-115.5 791.007,-115.5"/>
<text text-anchor="middle" x="828.065" y="-178.5" font-family="Helvetica,sans-Serif" font-size="10.00">Accessory</text>
<polyline fill="none" stroke="black" points="791.007,-171.5 865.123,-171.5 "/>
<text text-anchor="middle" x="828.065" y="-158.5" font-family="Helvetica,sans-Serif" font-size="10.00">(Id)</text>
<text text-anchor="middle" x="828.065" y="-146.5" font-family="Helvetica,sans-Serif" font-size="10.00">Color</text>
<text text-anchor="middle" x="828.065" y="-134.5" font-family="Helvetica,sans-Serif" font-size="10.00">Smell</text>
<text text-anchor="middle" x="828.065" y="-122.5" font-family="Helvetica,sans-Serif" font-size="10.00">Region</text>
</g>
<!-- A4&#45;&gt;A6 -->
<g id="edge3" class="edge"><title>A4&#45;&gt;A6</title>
<path fill="none" stroke="black" d="M930.345,-276.418C912.371,-254.992 886.884,-224.612 865.85,-199.539"/>
<polygon fill="black" stroke="black" points="936.98,-284.326 927.105,-279.557 933.766,-280.495 930.553,-276.665 930.553,-276.665 930.553,-276.665 933.766,-280.495 934,-273.773 936.98,-284.326 936.98,-284.326"/>
<polygon fill="black" stroke="black" points="859.192,-191.603 869.067,-196.372 862.406,-195.434 865.619,-199.264 865.619,-199.264 865.619,-199.264 862.406,-195.434 862.172,-202.156 859.192,-191.603 859.192,-191.603"/>
<text text-anchor="middle" x="877.317" y="-197.057" font-family="Helvetica,sans-Serif" font-size="10.00">1</text>
<text text-anchor="middle" x="918.855" y="-272.872" font-family="Helvetica,sans-Serif" font-size="10.00">1</text>
</g>
<!-- A10 -->
<g id="node11" class="node"><title>A10</title>
<polygon fill="none" stroke="black" points="883.228,-121.5 883.228,-185.5 942.902,-185.5 942.902,-121.5 883.228,-121.5"/>
<text text-anchor="middle" x="913.065" y="-172.5" font-family="Helvetica,sans-Serif" font-size="10.00">Toy</text>
<polyline fill="none" stroke="black" points="883.228,-165.5 942.902,-165.5 "/>
<text text-anchor="middle" x="913.065" y="-152.5" font-family="Helvetica,sans-Serif" font-size="10.00">(Id)</text>
<text text-anchor="middle" x="913.065" y="-140.5" font-family="Helvetica,sans-Serif" font-size="10.00">Color</text>
<text text-anchor="middle" x="913.065" y="-128.5" font-family="Helvetica,sans-Serif" font-size="10.00">Region</text>
</g>
<!-- A4&#45;&gt;A10 -->
<g id="edge4" class="edge"><title>A4&#45;&gt;A10</title>
<path fill="none" stroke="black" d="M945.272,-274.468C939.234,-251.976 930.792,-220.532 924.066,-195.479"/>
<polygon fill="black" stroke="black" points="947.918,-284.326 940.979,-275.835 946.622,-279.497 945.325,-274.668 945.325,-274.668 945.325,-274.668 946.622,-279.497 949.671,-273.501 947.918,-284.326 947.918,-284.326"/>
<polygon fill="black" stroke="black" points="921.395,-185.527 928.334,-194.018 922.691,-190.356 923.988,-195.185 923.988,-195.185 923.988,-195.185 922.691,-190.356 919.642,-196.352 921.395,-185.527 921.395,-185.527"/>
<text text-anchor="middle" x="934.258" y="-197.842" font-family="Helvetica,sans-Serif" font-size="10.00">1</text>
<text text-anchor="middle" x="935.055" y="-266.011" font-family="Helvetica,sans-Serif" font-size="10.00">1</text>
</g>
<!-- A11 -->
<g id="node12" class="node"><title>A11</title>
<polygon fill="none" stroke="black" points="961.289,-109.5 961.289,-197.5 1024.84,-197.5 1024.84,-109.5 961.289,-109.5"/>
<text text-anchor="middle" x="993.065" y="-184.5" font-family="Helvetica,sans-Serif" font-size="10.00">Cage</text>
<polyline fill="none" stroke="black" points="961.289,-177.5 1024.84,-177.5 "/>
<text text-anchor="middle" x="993.065" y="-164.5" font-family="Helvetica,sans-Serif" font-size="10.00">(Id)</text>
<text text-anchor="middle" x="993.065" y="-152.5" font-family="Helvetica,sans-Serif" font-size="10.00">Color</text>
<text text-anchor="middle" x="993.065" y="-140.5" font-family="Helvetica,sans-Serif" font-size="10.00">Material</text>
<text text-anchor="middle" x="993.065" y="-128.5" font-family="Helvetica,sans-Serif" font-size="10.00">Size</text>
<text text-anchor="middle" x="993.065" y="-116.5" font-family="Helvetica,sans-Serif" font-size="10.00">Region</text>
</g>
<!-- A4&#45;&gt;A11 -->
<g id="edge5" class="edge"><title>A4&#45;&gt;A11</title>
<path fill="none" stroke="black" d="M960.813,-274.642C965.922,-255.61 972.767,-230.111 978.837,-207.501"/>
<polygon fill="black" stroke="black" points="958.213,-284.326 956.46,-273.501 959.509,-279.497 960.806,-274.668 960.806,-274.668 960.806,-274.668 959.509,-279.497 965.152,-275.835 958.213,-284.326 958.213,-284.326"/>
<polygon fill="black" stroke="black" points="981.473,-197.684 983.226,-208.509 980.176,-202.513 978.88,-207.342 978.88,-207.342 978.88,-207.342 980.176,-202.513 974.534,-206.175 981.473,-197.684 981.473,-197.684"/>
<text text-anchor="middle" x="984.936" y="-214.382" font-family="Helvetica,sans-Serif" font-size="10.00">1</text>
<text text-anchor="middle" x="954.749" y="-261.628" font-family="Helvetica,sans-Serif" font-size="10.00">1</text>
</g>
<!-- A12 -->
<g id="node13" class="node"><title>A12</title>
<polygon fill="none" stroke="black" points="1042.45,-121.5 1042.45,-185.5 1107.68,-185.5 1107.68,-121.5 1042.45,-121.5"/>
<text text-anchor="middle" x="1075.07" y="-172.5" font-family="Helvetica,sans-Serif" font-size="10.00">Food</text>
<polyline fill="none" stroke="black" points="1042.45,-165.5 1107.68,-165.5 "/>
<text text-anchor="middle" x="1075.07" y="-152.5" font-family="Helvetica,sans-Serif" font-size="10.00">(Id)</text>
<text text-anchor="middle" x="1075.07" y="-140.5" font-family="Helvetica,sans-Serif" font-size="10.00">Nutrition</text>
<text text-anchor="middle" x="1075.07" y="-128.5" font-family="Helvetica,sans-Serif" font-size="10.00">Region</text>
</g>
<!-- A4&#45;&gt;A12 -->
<g id="edge6" class="edge"><title>A4&#45;&gt;A12</title>
<path fill="none" stroke="black" d="M975.181,-276.49C994.193,-253.27 1021.85,-219.496 1043.24,-193.37"/>
<polygon fill="black" stroke="black" points="968.765,-284.326 971.619,-273.738 971.933,-280.457 975.1,-276.589 975.1,-276.589 975.1,-276.589 971.933,-280.457 978.582,-279.439 968.765,-284.326 968.765,-284.326"/>
<polygon fill="black" stroke="black" points="1049.66,-185.527 1046.81,-196.115 1046.49,-189.396 1043.33,-193.264 1043.33,-193.264 1043.33,-193.264 1046.49,-189.396 1039.84,-190.413 1049.66,-185.527 1049.66,-185.527"/>
<text text-anchor="middle" x="1044.72" y="-201.906" font-family="Helvetica,sans-Serif" font-size="10.00">1</text>
<text text-anchor="middle" x="973.709" y="-261.946" font-family="Helvetica,sans-Serif" font-size="10.00">1</text>
</g>
<!-- A7 -->
<g id="node8" class="node"><title>A7</title>
<polygon fill="none" stroke="black" points="1122.78,-0.5 1122.78,-52.5 1231.35,-52.5 1231.35,-0.5 1122.78,-0.5"/>
<text text-anchor="middle" x="1177.07" y="-39.5" font-family="Helvetica,sans-Serif" font-size="10.00">FeedingRoutine</text>
<polyline fill="none" stroke="black" points="1122.78,-32.5 1231.35,-32.5 "/>
<text text-anchor="middle" x="1177.07" y="-19.5" font-family="Helvetica,sans-Serif" font-size="10.00">(Id)</text>
<text text-anchor="middle" x="1177.07" y="-7.5" font-family="Helvetica,sans-Serif" font-size="10.00">FrequencyPerDay</text>
</g>
<!-- A5&#45;&gt;A7 -->
<g id="edge8" class="edge"><title>A5&#45;&gt;A7</title>
<path fill="none" stroke="black" d="M1177.07,-93.152C1177.07,-82.7898 1177.07,-72.3118 1177.07,-62.8612"/>
<polygon fill="black" stroke="black" points="1177.07,-103.455 1172.57,-93.4554 1177.07,-98.4555 1177.07,-93.4555 1177.07,-93.4555 1177.07,-93.4555 1177.07,-98.4555 1181.57,-93.4555 1177.07,-103.455 1177.07,-103.455"/>
<polygon fill="black" stroke="black" points="1177.07,-52.6887 1181.57,-62.6886 1177.07,-57.6887 1177.07,-62.6887 1177.07,-62.6887 1177.07,-62.6887 1177.07,-57.6887 1172.57,-62.6887 1177.07,-52.6887 1177.07,-52.6887"/>
<text text-anchor="middle" x="1185.52" y="-67.8148" font-family="Helvetica,sans-Serif" font-size="10.00">1</text>
<text text-anchor="middle" x="1168.61" y="-82.3293" font-family="Helvetica,sans-Serif" font-size="10.00">n</text>
</g>
<!-- A8 -->
<g id="node9" class="node"><title>A8</title>
<polygon fill="none" stroke="black" points="1249.45,-0.5 1249.45,-52.5 1314.68,-52.5 1314.68,-0.5 1249.45,-0.5"/>
<text text-anchor="middle" x="1282.07" y="-39.5" font-family="Helvetica,sans-Serif" font-size="10.00">PetType</text>
<polyline fill="none" stroke="black" points="1249.45,-32.5 1314.68,-32.5 "/>
<text text-anchor="middle" x="1282.07" y="-19.5" font-family="Helvetica,sans-Serif" font-size="10.00">(Id)</text>
<text text-anchor="middle" x="1282.07" y="-7.5" font-family="Helvetica,sans-Serif" font-size="10.00">Name</text>
</g>
<!-- A5&#45;&gt;A8 -->
<g id="edge9" class="edge"><title>A5&#45;&gt;A8</title>
<path fill="none" stroke="black" d="M1224.83,-95.6415C1234.9,-83.6446 1245.22,-71.3682 1254.26,-60.5998"/>
<polygon fill="black" stroke="black" points="1218.26,-103.455 1221.25,-92.904 1221.48,-99.6269 1224.69,-95.7984 1224.69,-95.7984 1224.69,-95.7984 1221.48,-99.6269 1228.14,-98.6928 1218.26,-103.455 1218.26,-103.455"/>
<polygon fill="black" stroke="black" points="1260.91,-52.6887 1257.92,-63.2401 1257.69,-56.5172 1254.48,-60.3458 1254.48,-60.3458 1254.48,-60.3458 1257.69,-56.5172 1251.03,-57.4514 1260.91,-52.6887 1260.91,-52.6887"/>
<text text-anchor="middle" x="1255.72" y="-69.0045" font-family="Helvetica,sans-Serif" font-size="10.00">1</text>
<text text-anchor="middle" x="1223.45" y="-81.1397" font-family="Helvetica,sans-Serif" font-size="10.00">n</text>
</g>
<!-- A9 -->
<g id="node10" class="node"><title>A9</title>
<polygon fill="none" stroke="black" points="922.228,-0.5 922.228,-52.5 981.902,-52.5 981.902,-0.5 922.228,-0.5"/>
<text text-anchor="middle" x="952.065" y="-39.5" font-family="Helvetica,sans-Serif" font-size="10.00">Region</text>
<polyline fill="none" stroke="black" points="922.228,-32.5 981.902,-32.5 "/>
<text text-anchor="middle" x="952.065" y="-19.5" font-family="Helvetica,sans-Serif" font-size="10.00">(Id)</text>
<text text-anchor="middle" x="952.065" y="-7.5" font-family="Helvetica,sans-Serif" font-size="10.00">Name</text>
</g>
<!-- A6&#45;&gt;A9 -->
<g id="edge10" class="edge"><title>A6&#45;&gt;A9</title>
<path fill="none" stroke="black" d="M869.308,-107.896C870.908,-106.237 872.498,-104.6 874.065,-103 888.2,-88.5754 904.167,-72.9982 917.958,-59.7607"/>
<polygon fill="black" stroke="black" points="862.267,-115.268 865.92,-104.928 865.72,-111.652 869.174,-108.036 869.174,-108.036 869.174,-108.036 865.72,-111.652 872.428,-111.144 862.267,-115.268 862.267,-115.268"/>
<polygon fill="black" stroke="black" points="925.369,-52.6694 921.255,-62.8341 921.756,-56.126 918.144,-59.5826 918.144,-59.5826 918.144,-59.5826 921.756,-56.126 915.033,-56.3311 925.369,-52.6694 925.369,-52.6694"/>
<text text-anchor="middle" x="918.115" y="-68.3076" font-family="Helvetica,sans-Serif" font-size="10.00">1</text>
<text text-anchor="middle" x="868.674" y="-93.3218" font-family="Helvetica,sans-Serif" font-size="10.00">n</text>
</g>
<!-- A10&#45;&gt;A9 -->
<g id="edge11" class="edge"><title>A10&#45;&gt;A9</title>
<path fill="none" stroke="black" d="M925.858,-111.499C930.807,-95.6363 936.413,-77.6698 941.166,-62.4355"/>
<polygon fill="black" stroke="black" points="922.806,-121.28 921.489,-110.393 924.295,-116.507 925.785,-111.734 925.785,-111.734 925.785,-111.734 924.295,-116.507 930.08,-113.074 922.806,-121.28 922.806,-121.28"/>
<polygon fill="black" stroke="black" points="944.151,-52.8686 945.468,-63.755 942.661,-57.6416 941.172,-62.4147 941.172,-62.4147 941.172,-62.4147 942.661,-57.6416 936.876,-61.0744 944.151,-52.8686 944.151,-52.8686"/>
<text text-anchor="middle" x="946.821" y="-69.6895" font-family="Helvetica,sans-Serif" font-size="10.00">1</text>
<text text-anchor="middle" x="920.136" y="-98.4587" font-family="Helvetica,sans-Serif" font-size="10.00">n</text>
</g>
<!-- A11&#45;&gt;A9 -->
<g id="edge15" class="edge"><title>A11&#45;&gt;A9</title>
<path fill="none" stroke="black" d="M975.691,-99.5288C971.573,-86.9738 967.283,-73.8935 963.506,-62.3789"/>
<polygon fill="black" stroke="black" points="978.956,-109.482 971.563,-101.383 977.397,-104.731 975.839,-99.9802 975.839,-99.9802 975.839,-99.9802 977.397,-104.731 980.115,-98.5776 978.956,-109.482 978.956,-109.482"/>
<polygon fill="black" stroke="black" points="960.336,-52.7157 967.729,-60.8151 961.895,-57.4667 963.453,-62.2176 963.453,-62.2176 963.453,-62.2176 961.895,-57.4667 959.177,-63.6201 960.336,-52.7157 960.336,-52.7157"/>
<text text-anchor="middle" x="974.017" y="-64.3047" font-family="Helvetica,sans-Serif" font-size="10.00">1</text>
<text text-anchor="middle" x="965.275" y="-91.893" font-family="Helvetica,sans-Serif" font-size="10.00">n</text>
</g>
<!-- A12&#45;&gt;A9 -->
<g id="edge13" class="edge"><title>A12&#45;&gt;A9</title>
<path fill="none" stroke="black" d="M1043.56,-113.437C1040.41,-109.852 1037.22,-106.323 1034.07,-103 1020.02,-88.195 1003.63,-72.7741 989.207,-59.7577"/>
<polygon fill="black" stroke="black" points="1050.32,-121.315 1040.39,-116.659 1047.06,-117.521 1043.81,-113.727 1043.81,-113.727 1043.81,-113.727 1047.06,-117.521 1047.22,-110.796 1050.32,-121.315 1050.32,-121.315"/>
<polygon fill="black" stroke="black" points="981.427,-52.7928 991.879,-56.1099 985.152,-56.1278 988.877,-59.4627 988.877,-59.4627 988.877,-59.4627 985.152,-56.1278 985.876,-62.8156 981.427,-52.7928 981.427,-52.7928"/>
<text text-anchor="middle" x="1000.57" y="-55.5851" font-family="Helvetica,sans-Serif" font-size="10.00">1</text>
<text text-anchor="middle" x="1032.1" y="-110.068" font-family="Helvetica,sans-Serif" font-size="10.00">n</text>
</g>
<!-- A13 -->
<g id="node14" class="node"><title>A13</title>
<polygon fill="none" stroke="black" points="1039.45,-0.5 1039.45,-52.5 1104.68,-52.5 1104.68,-0.5 1039.45,-0.5"/>
<text text-anchor="middle" x="1072.07" y="-39.5" font-family="Helvetica,sans-Serif" font-size="10.00">Nutrition</text>
<polyline fill="none" stroke="black" points="1039.45,-32.5 1104.68,-32.5 "/>
<text text-anchor="middle" x="1072.07" y="-19.5" font-family="Helvetica,sans-Serif" font-size="10.00">(Id)</text>
<text text-anchor="middle" x="1072.07" y="-7.5" font-family="Helvetica,sans-Serif" font-size="10.00">Name</text>
</g>
<!-- A12&#45;&gt;A13 -->
<g id="edge12" class="edge"><title>A12&#45;&gt;A13</title>
<path fill="none" stroke="black" d="M1074.08,-111.233C1073.7,-95.7207 1073.28,-78.2285 1072.92,-63.2587"/>
<polygon fill="black" stroke="black" points="1074.32,-121.28 1069.58,-111.391 1074.2,-116.281 1074.08,-111.283 1074.08,-111.283 1074.08,-111.283 1074.2,-116.281 1078.57,-111.175 1074.32,-121.28 1074.32,-121.28"/>
<polygon fill="black" stroke="black" points="1072.67,-52.8686 1077.41,-62.7577 1072.79,-57.8671 1072.91,-62.8657 1072.91,-62.8657 1072.91,-62.8657 1072.79,-57.8671 1068.42,-62.9737 1072.67,-52.8686 1072.67,-52.8686"/>
<text text-anchor="middle" x="1081.56" y="-67.7867" font-family="Helvetica,sans-Serif" font-size="10.00">n</text>
<text text-anchor="middle" x="1065.43" y="-100.362" font-family="Helvetica,sans-Serif" font-size="10.00">n</text>
</g>
<!-- A14&#45;&gt;A5 -->
<g id="edge14" class="edge"><title>A14&#45;&gt;A5</title>
<path fill="none" stroke="black" d="M1177.07,-268.09C1177.07,-251.865 1177.07,-232.189 1177.07,-213.803"/>
<polygon fill="black" stroke="black" points="1177.07,-278.224 1172.57,-268.224 1177.07,-273.224 1177.07,-268.224 1177.07,-268.224 1177.07,-268.224 1177.07,-273.224 1181.57,-268.224 1177.07,-278.224 1177.07,-278.224"/>
<polygon fill="black" stroke="black" points="1177.07,-203.751 1181.57,-213.751 1177.07,-208.751 1177.07,-213.751 1177.07,-213.751 1177.07,-213.751 1177.07,-208.751 1172.57,-213.751 1177.07,-203.751 1177.07,-203.751"/>
<text text-anchor="middle" x="1185.52" y="-218.877" font-family="Helvetica,sans-Serif" font-size="10.00">n</text>
<text text-anchor="middle" x="1168.61" y="-257.098" font-family="Helvetica,sans-Serif" font-size="10.00">n</text>
</g>
<!-- A15 -->
<g id="node16" class="node"><title>A15</title>
<polygon fill="none" stroke="black" points="614.959,-109.5 614.959,-197.5 685.172,-197.5 685.172,-109.5 614.959,-109.5"/>
<text text-anchor="middle" x="650.065" y="-184.5" font-family="Helvetica,sans-Serif" font-size="10.00">Store</text>
<polyline fill="none" stroke="black" points="614.959,-177.5 685.172,-177.5 "/>
<text text-anchor="middle" x="650.065" y="-164.5" font-family="Helvetica,sans-Serif" font-size="10.00">(Id)</text>
<text text-anchor="middle" x="650.065" y="-152.5" font-family="Helvetica,sans-Serif" font-size="10.00">Name</text>
<text text-anchor="middle" x="650.065" y="-140.5" font-family="Helvetica,sans-Serif" font-size="10.00">Address</text>
<text text-anchor="middle" x="650.065" y="-128.5" font-family="Helvetica,sans-Serif" font-size="10.00">IsPrimary</text>
<text text-anchor="middle" x="650.065" y="-116.5" font-family="Helvetica,sans-Serif" font-size="10.00">Manager</text>
</g>
<!-- A16 -->
<g id="node17" class="node"><title>A16</title>
<polygon fill="none" stroke="black" points="548.009,-423.5 548.009,-487.5 622.122,-487.5 622.122,-423.5 548.009,-423.5"/>
<text text-anchor="middle" x="585.065" y="-474.5" font-family="Helvetica,sans-Serif" font-size="10.00">Auth</text>
<polyline fill="none" stroke="black" points="548.009,-467.5 622.122,-467.5 "/>
<text text-anchor="middle" x="585.065" y="-454.5" font-family="Helvetica,sans-Serif" font-size="10.00">(Id)</text>
<text text-anchor="middle" x="585.065" y="-442.5" font-family="Helvetica,sans-Serif" font-size="10.00">Username</text>
<text text-anchor="middle" x="585.065" y="-430.5" font-family="Helvetica,sans-Serif" font-size="10.00">Password</text>
</g>
<!-- A17 -->
<g id="node18" class="node"><title>A17</title>
<polygon fill="none" stroke="black" points="529.836,-266.5 529.836,-342.5 622.295,-342.5 622.295,-266.5 529.836,-266.5"/>
<text text-anchor="middle" x="576.065" y="-329.5" font-family="Helvetica,sans-Serif" font-size="10.00">Customer</text>
<polyline fill="none" stroke="black" points="529.836,-322.5 622.295,-322.5 "/>
<text text-anchor="middle" x="576.065" y="-309.5" font-family="Helvetica,sans-Serif" font-size="10.00">(Id)</text>
<text text-anchor="middle" x="576.065" y="-297.5" font-family="Helvetica,sans-Serif" font-size="10.00">Address</text>
<text text-anchor="middle" x="576.065" y="-285.5" font-family="Helvetica,sans-Serif" font-size="10.00">PhoneNumber</text>
<text text-anchor="middle" x="576.065" y="-273.5" font-family="Helvetica,sans-Serif" font-size="10.00">Email</text>
</g>
<!-- A16&#45;&gt;A17 -->
<g id="edge27" class="edge"><title>A16&#45;&gt;A17</title>
<path fill="none" stroke="black" d="M582.57,-413.189C581.44,-394.485 580.099,-372.271 578.928,-352.892"/>
<polygon fill="black" stroke="black" points="583.179,-423.265 578.084,-413.554 582.877,-418.274 582.576,-413.283 582.576,-413.283 582.576,-413.283 582.877,-418.274 587.068,-413.012 583.179,-423.265 583.179,-423.265"/>
<polygon fill="black" stroke="black" points="578.316,-342.754 583.411,-352.465 578.617,-347.745 578.919,-352.736 578.919,-352.736 578.919,-352.736 578.617,-347.745 574.427,-353.008 578.316,-342.754 578.316,-342.754"/>
<text text-anchor="middle" x="587.846" y="-357.338" font-family="Helvetica,sans-Serif" font-size="10.00">1</text>
<text text-anchor="middle" x="573.649" y="-402.681" font-family="Helvetica,sans-Serif" font-size="10.00">1</text>
</g>
<!-- A18 -->
<g id="node19" class="node"><title>A18</title>
<polygon fill="none" stroke="black" points="639.836,-254.5 639.836,-354.5 732.295,-354.5 732.295,-254.5 639.836,-254.5"/>
<text text-anchor="middle" x="686.065" y="-341.5" font-family="Helvetica,sans-Serif" font-size="10.00">Employee</text>
<polyline fill="none" stroke="black" points="639.836,-334.5 732.295,-334.5 "/>
<text text-anchor="middle" x="686.065" y="-321.5" font-family="Helvetica,sans-Serif" font-size="10.00">(Id)</text>
<text text-anchor="middle" x="686.065" y="-309.5" font-family="Helvetica,sans-Serif" font-size="10.00">Address</text>
<text text-anchor="middle" x="686.065" y="-297.5" font-family="Helvetica,sans-Serif" font-size="10.00">DateOfBirth</text>
<text text-anchor="middle" x="686.065" y="-285.5" font-family="Helvetica,sans-Serif" font-size="10.00">PhoneNumber</text>
<text text-anchor="middle" x="686.065" y="-273.5" font-family="Helvetica,sans-Serif" font-size="10.00">Email</text>
<text text-anchor="middle" x="686.065" y="-261.5" font-family="Helvetica,sans-Serif" font-size="10.00">EmpType</text>
</g>
<!-- A16&#45;&gt;A18 -->
<g id="edge28" class="edge"><title>A16&#45;&gt;A18</title>
<path fill="none" stroke="black" d="M611.989,-414.782C622.76,-398.891 635.377,-380.278 647.114,-362.963"/>
<polygon fill="black" stroke="black" points="606.238,-423.265 608.124,-412.462 609.044,-419.126 611.849,-414.987 611.849,-414.987 611.849,-414.987 609.044,-419.126 615.574,-417.512 606.238,-423.265 606.238,-423.265"/>
<polygon fill="black" stroke="black" points="652.794,-354.584 650.908,-365.387 649.988,-358.723 647.183,-362.862 647.183,-362.862 647.183,-362.862 649.988,-358.723 643.458,-360.337 652.794,-354.584 652.794,-354.584"/>
<text text-anchor="middle" x="649.62" y="-371.331" font-family="Helvetica,sans-Serif" font-size="10.00">1</text>
<text text-anchor="middle" x="609.412" y="-400.518" font-family="Helvetica,sans-Serif" font-size="10.00">1</text>
</g>
<!-- A19 -->
<g id="node20" class="node"><title>A19</title>
<polygon fill="none" stroke="black" points="519.07,-127.5 519.07,-179.5 597.061,-179.5 597.061,-127.5 519.07,-127.5"/>
<text text-anchor="middle" x="558.065" y="-166.5" font-family="Helvetica,sans-Serif" font-size="10.00">Score</text>
<polyline fill="none" stroke="black" points="519.07,-159.5 597.061,-159.5 "/>
<text text-anchor="middle" x="558.065" y="-146.5" font-family="Helvetica,sans-Serif" font-size="10.00">(Customer)</text>
<text text-anchor="middle" x="558.065" y="-134.5" font-family="Helvetica,sans-Serif" font-size="10.00">Value</text>
</g>
<!-- A17&#45;&gt;A19 -->
<g id="edge16" class="edge"><title>A17&#45;&gt;A19</title>
<path fill="none" stroke="black" d="M570.339,-256.101C567.738,-234.57 564.715,-209.543 562.32,-189.716"/>
<polygon fill="black" stroke="black" points="571.57,-266.285 565.903,-256.897 570.97,-261.321 570.37,-256.358 570.37,-256.358 570.37,-256.358 570.97,-261.321 574.838,-255.818 571.57,-266.285 571.57,-266.285"/>
<polygon fill="black" stroke="black" points="561.095,-179.58 566.762,-188.968 561.695,-184.544 562.295,-189.508 562.295,-189.508 562.295,-189.508 561.695,-184.544 557.827,-190.047 561.095,-179.58 561.095,-179.58"/>
<text text-anchor="middle" x="571.661" y="-193.561" font-family="Helvetica,sans-Serif" font-size="10.00">1</text>
<text text-anchor="middle" x="561.004" y="-246.304" font-family="Helvetica,sans-Serif" font-size="10.00">1</text>
</g>
<!-- A18&#45;&gt;A15 -->
<g id="edge18" class="edge"><title>A18&#45;&gt;A15</title>
<path fill="none" stroke="black" d="M671.746,-244.235C668.809,-232.076 665.734,-219.351 662.855,-207.433"/>
<polygon fill="black" stroke="black" points="674.178,-254.299 667.455,-245.635 673.004,-249.439 671.829,-244.579 671.829,-244.579 671.829,-244.579 673.004,-249.439 676.204,-243.522 674.178,-254.299 674.178,-254.299"/>
<polygon fill="black" stroke="black" points="660.489,-197.641 667.212,-206.304 661.663,-202.501 662.837,-207.361 662.837,-207.361 662.837,-207.361 661.663,-202.501 658.463,-208.418 660.489,-197.641 660.489,-197.641"/>
<text text-anchor="middle" x="672.962" y="-210.275" font-family="Helvetica,sans-Serif" font-size="10.00">1</text>
<text text-anchor="middle" x="661.705" y="-235.665" font-family="Helvetica,sans-Serif" font-size="10.00">n</text>
</g>
<!-- A20 -->
<g id="node21" class="node"><title>A20</title>
<polygon fill="none" stroke="black" points="702.673,-127.5 702.673,-179.5 773.457,-179.5 773.457,-127.5 702.673,-127.5"/>
<text text-anchor="middle" x="738.065" y="-166.5" font-family="Helvetica,sans-Serif" font-size="10.00">EmpType</text>
<polyline fill="none" stroke="black" points="702.673,-159.5 773.457,-159.5 "/>
<text text-anchor="middle" x="738.065" y="-146.5" font-family="Helvetica,sans-Serif" font-size="10.00">(Id)</text>
<text text-anchor="middle" x="738.065" y="-134.5" font-family="Helvetica,sans-Serif" font-size="10.00">Name</text>
</g>
<!-- A18&#45;&gt;A20 -->
<g id="edge17" class="edge"><title>A18&#45;&gt;A20</title>
<path fill="none" stroke="black" d="M706.559,-244.778C713.08,-226.092 720.086,-206.019 725.831,-189.556"/>
<polygon fill="black" stroke="black" points="703.236,-254.299 702.283,-243.375 704.884,-249.578 706.531,-244.857 706.531,-244.857 706.531,-244.857 704.884,-249.578 710.78,-246.34 703.236,-254.299 703.236,-254.299"/>
<polygon fill="black" stroke="black" points="729.23,-179.817 730.184,-190.741 727.583,-184.537 725.935,-189.258 725.935,-189.258 725.935,-189.258 727.583,-184.537 721.686,-187.775 729.23,-179.817 729.23,-179.817"/>
<text text-anchor="middle" x="731.238" y="-196.716" font-family="Helvetica,sans-Serif" font-size="10.00">1</text>
<text text-anchor="middle" x="701.229" y="-231.4" font-family="Helvetica,sans-Serif" font-size="10.00">n</text>
</g>
<!-- A21 -->
<g id="node22" class="node"><title>A21</title>
<polygon fill="none" stroke="black" points="640.116,-423.5 640.116,-487.5 732.015,-487.5 732.015,-423.5 640.116,-423.5"/>
<text text-anchor="middle" x="686.065" y="-474.5" font-family="Helvetica,sans-Serif" font-size="10.00">Advertisement</text>
<polyline fill="none" stroke="black" points="640.116,-467.5 732.015,-467.5 "/>
<text text-anchor="middle" x="686.065" y="-454.5" font-family="Helvetica,sans-Serif" font-size="10.00">(Id)</text>
<text text-anchor="middle" x="686.065" y="-442.5" font-family="Helvetica,sans-Serif" font-size="10.00">ImgUrl</text>
<text text-anchor="middle" x="686.065" y="-430.5" font-family="Helvetica,sans-Serif" font-size="10.00">Owner</text>
</g>
<!-- A21&#45;&gt;A18 -->
<g id="edge22" class="edge"><title>A21&#45;&gt;A18</title>
<path fill="none" stroke="black" d="M686.065,-413.014C686.065,-398.145 686.065,-381.078 686.065,-364.985"/>
<polygon fill="black" stroke="black" points="686.065,-423.265 681.566,-413.265 686.066,-418.265 686.066,-413.265 686.066,-413.265 686.066,-413.265 686.066,-418.265 690.566,-413.265 686.065,-423.265 686.065,-423.265"/>
<polygon fill="black" stroke="black" points="686.065,-354.584 690.566,-364.584 686.066,-359.584 686.066,-364.584 686.066,-364.584 686.066,-364.584 686.066,-359.584 681.566,-364.584 686.065,-354.584 686.065,-354.584"/>
<text text-anchor="middle" x="694.518" y="-369.71" font-family="Helvetica,sans-Serif" font-size="10.00">1</text>
<text text-anchor="middle" x="677.613" y="-402.139" font-family="Helvetica,sans-Serif" font-size="10.00">n</text>
</g>
<!-- A22 -->
<g id="node23" class="node"><title>A22</title>
<polygon fill="none" stroke="black" points="426,-411.5 426,-499.5 530.13,-499.5 530.13,-411.5 426,-411.5"/>
<text text-anchor="middle" x="478.065" y="-486.5" font-family="Helvetica,sans-Serif" font-size="10.00">MessageSession</text>
<polyline fill="none" stroke="black" points="426,-479.5 530.13,-479.5 "/>
<text text-anchor="middle" x="478.065" y="-466.5" font-family="Helvetica,sans-Serif" font-size="10.00">(Id)</text>
<text text-anchor="middle" x="478.065" y="-454.5" font-family="Helvetica,sans-Serif" font-size="10.00">Employee</text>
<text text-anchor="middle" x="478.065" y="-442.5" font-family="Helvetica,sans-Serif" font-size="10.00">Customer</text>
<text text-anchor="middle" x="478.065" y="-430.5" font-family="Helvetica,sans-Serif" font-size="10.00">DateStart</text>
<text text-anchor="middle" x="478.065" y="-418.5" font-family="Helvetica,sans-Serif" font-size="10.00">IsEnd</text>
</g>
<!-- A22&#45;&gt;A17 -->
<g id="edge20" class="edge"><title>A22&#45;&gt;A17</title>
<path fill="none" stroke="black" d="M512.049,-402.831C522.983,-386.207 535.021,-367.904 545.679,-351.699"/>
<polygon fill="black" stroke="black" points="506.411,-411.403 508.147,-400.575 509.159,-407.226 511.906,-403.048 511.906,-403.048 511.906,-403.048 509.159,-407.226 515.666,-405.521 506.411,-411.403 506.411,-411.403"/>
<polygon fill="black" stroke="black" points="551.443,-342.937 549.707,-353.764 548.695,-347.114 545.948,-351.292 545.948,-351.292 545.948,-351.292 548.695,-347.114 542.188,-348.819 551.443,-342.937 551.443,-342.937"/>
<text text-anchor="middle" x="548.544" y="-359.726" font-family="Helvetica,sans-Serif" font-size="10.00">1</text>
<text text-anchor="middle" x="509.31" y="-388.614" font-family="Helvetica,sans-Serif" font-size="10.00">n</text>
</g>
<!-- A22&#45;&gt;A18 -->
<g id="edge21" class="edge"><title>A22&#45;&gt;A18</title>
<path fill="none" stroke="black" d="M538.204,-405.579C538.491,-405.385 538.779,-405.192 539.065,-405 577.742,-379.118 593.064,-381.862 631.065,-355 631.154,-354.937 631.243,-354.875 631.331,-354.812"/>
<polygon fill="black" stroke="black" points="529.827,-411.452 535.432,-402.027 533.921,-408.582 538.015,-405.712 538.015,-405.712 538.015,-405.712 533.921,-408.582 540.598,-409.396 529.827,-411.452 529.827,-411.452"/>
<polygon fill="black" stroke="black" points="639.571,-348.658 634.252,-358.247 635.565,-351.65 631.559,-354.642 631.559,-354.642 631.559,-354.642 635.565,-351.65 628.866,-351.036 639.571,-348.658 639.571,-348.658"/>
<text text-anchor="middle" x="630.106" y="-363.276" font-family="Helvetica,sans-Serif" font-size="10.00">1</text>
<text text-anchor="middle" x="539.817" y="-391.126" font-family="Helvetica,sans-Serif" font-size="10.00">n</text>
</g>
<!-- A23 -->
<g id="node24" class="node"><title>A23</title>
<polygon fill="none" stroke="black" points="424.615,-272.5 424.615,-336.5 511.515,-336.5 511.515,-272.5 424.615,-272.5"/>
<text text-anchor="middle" x="468.065" y="-323.5" font-family="Helvetica,sans-Serif" font-size="10.00">Conversation</text>
<polyline fill="none" stroke="black" points="424.615,-316.5 511.515,-316.5 "/>
<text text-anchor="middle" x="468.065" y="-303.5" font-family="Helvetica,sans-Serif" font-size="10.00">Session</text>
<text text-anchor="middle" x="468.065" y="-291.5" font-family="Helvetica,sans-Serif" font-size="10.00">IsEmployee</text>
<text text-anchor="middle" x="468.065" y="-279.5" font-family="Helvetica,sans-Serif" font-size="10.00">Content</text>
</g>
<!-- A22&#45;&gt;A23 -->
<g id="edge19" class="edge"><title>A22&#45;&gt;A23</title>
<path fill="none" stroke="black" d="M474.498,-401.34C473.294,-383.398 471.968,-363.652 470.835,-346.77"/>
<polygon fill="black" stroke="black" points="475.173,-411.403 470.013,-401.727 474.838,-406.414 474.503,-401.425 474.503,-401.425 474.503,-401.425 474.838,-406.414 478.993,-401.124 475.173,-411.403 475.173,-411.403"/>
<polygon fill="black" stroke="black" points="470.157,-336.67 475.317,-346.346 470.492,-341.659 470.827,-346.648 470.827,-346.648 470.827,-346.648 470.492,-341.659 466.337,-346.949 470.157,-336.67 470.157,-336.67"/>
<text text-anchor="middle" x="479.805" y="-351.19" font-family="Helvetica,sans-Serif" font-size="10.00">n</text>
<text text-anchor="middle" x="465.526" y="-390.884" font-family="Helvetica,sans-Serif" font-size="10.00">1</text>
</g>
<!-- A24 -->
<g id="node25" class="node"><title>A24</title>
<polygon fill="none" stroke="black" points="750.171,-411.5 750.171,-499.5 835.96,-499.5 835.96,-411.5 750.171,-411.5"/>
<text text-anchor="middle" x="793.065" y="-486.5" font-family="Helvetica,sans-Serif" font-size="10.00">Shipment</text>
<polyline fill="none" stroke="black" points="750.171,-479.5 835.96,-479.5 "/>
<text text-anchor="middle" x="793.065" y="-466.5" font-family="Helvetica,sans-Serif" font-size="10.00">(Id)</text>
<text text-anchor="middle" x="793.065" y="-454.5" font-family="Helvetica,sans-Serif" font-size="10.00">Customer</text>
<text text-anchor="middle" x="793.065" y="-442.5" font-family="Helvetica,sans-Serif" font-size="10.00">Shipper</text>
<text text-anchor="middle" x="793.065" y="-430.5" font-family="Helvetica,sans-Serif" font-size="10.00">DateOrdered</text>
<text text-anchor="middle" x="793.065" y="-418.5" font-family="Helvetica,sans-Serif" font-size="10.00">Status</text>
</g>
<!-- A24&#45;&gt;A4 -->
<g id="edge25" class="edge"><title>A24&#45;&gt;A4</title>
<path fill="none" stroke="black" d="M843.858,-407.2C870.753,-382.153 902.754,-352.353 925.138,-331.508"/>
<polygon fill="black" stroke="black" points="836.364,-414.178 840.615,-404.07 840.023,-410.771 843.682,-407.363 843.682,-407.363 843.682,-407.363 840.023,-410.771 846.749,-410.657 836.364,-414.178 836.364,-414.178"/>
<polygon fill="black" stroke="black" points="932.63,-324.531 928.379,-334.639 928.971,-327.938 925.312,-331.346 925.312,-331.346 925.312,-331.346 928.971,-327.938 922.245,-328.052 932.63,-324.531 932.63,-324.531"/>
<text text-anchor="middle" x="925.125" y="-340.069" font-family="Helvetica,sans-Serif" font-size="10.00">n</text>
<text text-anchor="middle" x="843.868" y="-392.64" font-family="Helvetica,sans-Serif" font-size="10.00">n</text>
</g>
<!-- A24&#45;&gt;A17 -->
<g id="edge24" class="edge"><title>A24&#45;&gt;A17</title>
<path fill="none" stroke="black" d="M741.908,-405.573C741.627,-405.381 741.346,-405.19 741.065,-405 696.553,-374.957 675.994,-384.418 631.065,-355 628.184,-353.113 625.302,-351.079 622.453,-348.948"/>
<polygon fill="black" stroke="black" points="749.983,-411.532 739.265,-409.216 745.96,-408.563 741.936,-405.594 741.936,-405.594 741.936,-405.594 745.96,-408.563 744.608,-401.973 749.983,-411.532 749.983,-411.532"/>
<polygon fill="black" stroke="black" points="614.533,-342.732 625.178,-345.366 618.466,-345.819 622.399,-348.906 622.399,-348.906 622.399,-348.906 618.466,-345.819 619.621,-352.446 614.533,-342.732 614.533,-342.732"/>
<text text-anchor="middle" x="634.01" y="-344.274" font-family="Helvetica,sans-Serif" font-size="10.00">1</text>
<text text-anchor="middle" x="730.379" y="-404.571" font-family="Helvetica,sans-Serif" font-size="10.00">n</text>
</g>
<!-- A24&#45;&gt;A18 -->
<g id="edge23" class="edge"><title>A24&#45;&gt;A18</title>
<path fill="none" stroke="black" d="M755.988,-402.869C746.667,-389.889 736.61,-375.884 727.107,-362.651"/>
<polygon fill="black" stroke="black" points="762.117,-411.403 752.628,-405.905 759.2,-407.342 756.284,-403.28 756.284,-403.28 756.284,-403.28 759.2,-407.342 759.939,-400.656 762.117,-411.403 762.117,-411.403"/>
<polygon fill="black" stroke="black" points="721.274,-354.528 730.762,-360.026 724.19,-358.59 727.107,-362.651 727.107,-362.651 727.107,-362.651 724.19,-358.59 723.452,-365.276 721.274,-354.528 721.274,-354.528"/>
<text text-anchor="middle" x="738.712" y="-361.321" font-family="Helvetica,sans-Serif" font-size="10.00">1</text>
<text text-anchor="middle" x="744.678" y="-398.61" font-family="Helvetica,sans-Serif" font-size="10.00">n</text>
</g>
<!-- A25 -->
<g id="node26" class="node"><title>A25</title>
<polygon fill="none" stroke="black" points="754.89,-278.5 754.89,-330.5 831.241,-330.5 831.241,-278.5 754.89,-278.5"/>
<text text-anchor="middle" x="793.065" y="-317.5" font-family="Helvetica,sans-Serif" font-size="10.00">ShipStatus</text>
<polyline fill="none" stroke="black" points="754.89,-310.5 831.241,-310.5 "/>
<text text-anchor="middle" x="793.065" y="-297.5" font-family="Helvetica,sans-Serif" font-size="10.00">(Id)</text>
<text text-anchor="middle" x="793.065" y="-285.5" font-family="Helvetica,sans-Serif" font-size="10.00">Name</text>
</g>
<!-- A24&#45;&gt;A25 -->
<g id="edge26" class="edge"><title>A24&#45;&gt;A25</title>
<path fill="none" stroke="black" d="M793.065,-401.342C793.065,-381.268 793.065,-358.936 793.065,-340.883"/>
<polygon fill="black" stroke="black" points="793.065,-411.403 788.566,-401.403 793.066,-406.403 793.066,-401.403 793.066,-401.403 793.066,-401.403 793.066,-406.403 797.566,-401.403 793.065,-411.403 793.065,-411.403"/>
<polygon fill="black" stroke="black" points="793.065,-330.797 797.566,-340.797 793.066,-335.797 793.066,-340.797 793.066,-340.797 793.066,-340.797 793.066,-335.797 788.566,-340.797 793.065,-330.797 793.065,-330.797"/>
<text text-anchor="middle" x="801.518" y="-345.923" font-family="Helvetica,sans-Serif" font-size="10.00">1</text>
<text text-anchor="middle" x="784.613" y="-390.277" font-family="Helvetica,sans-Serif" font-size="10.00">n</text>
</g>
</g>
</svg>
