<?xml version="1.0" encoding="UTF-8" standalone="no"?>
<!DOCTYPE svg PUBLIC "-//W3C//DTD SVG 1.1//EN"
 "http://www.w3.org/Graphics/SVG/1.1/DTD/svg11.dtd">
<!-- Generated by graphviz version 2.38.0 (20140413.2041)
 -->
<!-- Title: G Pages: 1 -->
<svg width="405pt" height="611pt"
 viewBox="0.00 0.00 404.82 610.50" xmlns="http://www.w3.org/2000/svg" xmlns:xlink="http://www.w3.org/1999/xlink">
<g id="graph0" class="graph" transform="scale(1 1) rotate(0) translate(4 606.5)">
<title>G</title>
<polygon fill="white" stroke="none" points="-4,4 -4,-606.5 400.823,-606.5 400.823,4 -4,4"/>
<!-- A0 -->
<g id="node1" class="node"><title>A0</title>
<polygon fill="cornsilk" stroke="black" points="118.197,-36 -0.0655692,-36 -0.0655692,-0 124.197,-0 124.197,-30 118.197,-36"/>
<polyline fill="none" stroke="black" points="118.197,-36 118.197,-30 "/>
<polyline fill="none" stroke="black" points="124.197,-30 118.197,-30 "/>
<text text-anchor="middle" x="62.0655" y="-21" font-family="Helvetica,sans-Serif" font-size="10.00">Diagram for database</text>
<text text-anchor="middle" x="62.0655" y="-9" font-family="Helvetica,sans-Serif" font-size="10.00">designing</text>
</g>
<!-- A1 -->
<g id="node2" class="node"><title>A1</title>
<polygon fill="none" stroke="black" points="107.64,-98 10.4906,-98 10.4906,-54 113.64,-54 113.64,-92 107.64,-98"/>
<polyline fill="none" stroke="black" points="107.64,-98 107.64,-92 "/>
<polyline fill="none" stroke="black" points="113.64,-92 107.64,-92 "/>
<text text-anchor="middle" x="62.0655" y="-85" font-family="Helvetica,sans-Serif" font-size="10.00">Do not use plural</text>
<text text-anchor="middle" x="62.0655" y="-73" font-family="Helvetica,sans-Serif" font-size="10.00">noun for entity</text>
<text text-anchor="middle" x="62.0655" y="-61" font-family="Helvetica,sans-Serif" font-size="10.00">name</text>
</g>
<!-- A2 -->
<g id="node3" class="node"><title>A2</title>
<polygon fill="none" stroke="black" points="23.065,-117 23.065,-217 101.066,-217 101.066,-117 23.065,-117"/>
<text text-anchor="middle" x="62.0655" y="-204" font-family="Helvetica,sans-Serif" font-size="10.00">Good</text>
<polyline fill="none" stroke="black" points="23.065,-197 101.066,-197 "/>
<text text-anchor="middle" x="62.0655" y="-184" font-family="Helvetica,sans-Serif" font-size="10.00">Image</text>
<polyline fill="none" stroke="black" points="23.065,-177 101.066,-177 "/>
<text text-anchor="middle" x="62.0655" y="-164" font-family="Helvetica,sans-Serif" font-size="10.00">Name</text>
<polyline fill="none" stroke="black" points="23.065,-157 101.066,-157 "/>
<text text-anchor="middle" x="62.0655" y="-144" font-family="Helvetica,sans-Serif" font-size="10.00">Description</text>
<polyline fill="none" stroke="black" points="23.065,-137 101.066,-137 "/>
<text text-anchor="middle" x="62.0655" y="-124" font-family="Helvetica,sans-Serif" font-size="10.00">Price</text>
</g>
<!-- A3 -->
<g id="node4" class="node"><title>A3</title>
<polygon fill="none" stroke="black" points="184.189,-286 184.189,-322 238.189,-322 238.189,-286 184.189,-286"/>
<text text-anchor="middle" x="211.189" y="-301" font-family="Helvetica,sans-Serif" font-size="10.00">Pet</text>
</g>
<!-- A2&#45;&gt;A3 -->
<g id="edge1" class="edge"><title>A2&#45;&gt;A3</title>
<path fill="none" stroke="black" d="M108.42,-211.476C113.723,-216.702 119.051,-221.965 124.131,-227 146.451,-249.124 150.381,-256.418 174.131,-277 175.095,-277.835 176.083,-278.674 177.087,-279.512"/>
<polygon fill="black" stroke="black" points="101.229,-204.396 111.512,-208.205 104.792,-207.904 108.355,-211.412 108.355,-211.412 108.355,-211.412 104.792,-207.904 105.198,-214.618 101.229,-204.396 101.229,-204.396"/>
<polygon fill="black" stroke="black" points="184.997,-285.861 174.381,-283.111 181.097,-282.731 177.198,-279.601 177.198,-279.601 177.198,-279.601 181.097,-282.731 180.015,-276.092 184.997,-285.861 184.997,-285.861"/>
<text text-anchor="middle" x="165.57" y="-278.106" font-family="Helvetica,sans-Serif" font-size="10.00">1</text>
<text text-anchor="middle" x="120.075" y="-208.09" font-family="Helvetica,sans-Serif" font-size="10.00">n</text>
</g>
<!-- A4 -->
<g id="node5" class="node"><title>A4</title>
<polygon fill="none" stroke="black" points="174.131,-231 174.131,-267 248.247,-267 248.247,-231 174.131,-231"/>
<text text-anchor="middle" x="211.189" y="-246" font-family="Helvetica,sans-Serif" font-size="10.00">Accessory</text>
</g>
<!-- A2&#45;&gt;A4 -->
<g id="edge2" class="edge"><title>A2&#45;&gt;A4</title>
<path fill="none" stroke="black" d="M110.191,-193.266C128.911,-203.7 150.266,-215.602 168.422,-225.721"/>
<polygon fill="black" stroke="black" points="101.336,-188.33 112.262,-189.268 105.704,-190.765 110.071,-193.199 110.071,-193.199 110.071,-193.199 105.704,-190.765 107.88,-197.13 101.336,-188.33 101.336,-188.33"/>
<polygon fill="black" stroke="black" points="177.593,-230.833 166.667,-229.895 173.226,-228.398 168.858,-225.964 168.858,-225.964 168.858,-225.964 173.226,-228.398 171.049,-222.033 177.593,-230.833 177.593,-230.833"/>
<text text-anchor="middle" x="157.645" y="-226.391" font-family="Helvetica,sans-Serif" font-size="10.00">1</text>
<text text-anchor="middle" x="121.284" y="-186.772" font-family="Helvetica,sans-Serif" font-size="10.00">n</text>
</g>
<!-- A5 -->
<g id="node6" class="node"><title>A5</title>
<polygon fill="none" stroke="black" points="184.189,-176 184.189,-212 238.189,-212 238.189,-176 184.189,-176"/>
<text text-anchor="middle" x="211.189" y="-191" font-family="Helvetica,sans-Serif" font-size="10.00">Toy</text>
</g>
<!-- A2&#45;&gt;A5 -->
<g id="edge3" class="edge"><title>A2&#45;&gt;A5</title>
<path fill="none" stroke="black" d="M111.433,-175.876C131.882,-179.629 155.285,-183.924 174.175,-187.391"/>
<polygon fill="black" stroke="black" points="101.336,-174.023 111.984,-171.402 106.254,-174.926 111.172,-175.829 111.172,-175.829 111.172,-175.829 106.254,-174.926 110.36,-180.255 101.336,-174.023 101.336,-174.023"/>
<polygon fill="black" stroke="black" points="184.158,-189.223 173.51,-191.844 179.24,-188.32 174.322,-187.418 174.322,-187.418 174.322,-187.418 179.24,-188.32 175.134,-182.992 184.158,-189.223 184.158,-189.223"/>
<text text-anchor="middle" x="164.803" y="-191.264" font-family="Helvetica,sans-Serif" font-size="10.00">1</text>
<text text-anchor="middle" x="120.691" y="-165.982" font-family="Helvetica,sans-Serif" font-size="10.00">n</text>
</g>
<!-- A6 -->
<g id="node7" class="node"><title>A6</title>
<polygon fill="none" stroke="black" points="184.189,-121 184.189,-157 238.189,-157 238.189,-121 184.189,-121"/>
<text text-anchor="middle" x="211.189" y="-136" font-family="Helvetica,sans-Serif" font-size="10.00">Cage</text>
</g>
<!-- A2&#45;&gt;A6 -->
<g id="edge4" class="edge"><title>A2&#45;&gt;A6</title>
<path fill="none" stroke="black" d="M111.433,-157.795C131.882,-153.903 155.285,-149.449 174.175,-145.854"/>
<polygon fill="black" stroke="black" points="101.336,-159.716 110.319,-153.426 106.248,-158.782 111.16,-157.847 111.16,-157.847 111.16,-157.847 106.248,-158.782 112.001,-162.267 101.336,-159.716 101.336,-159.716"/>
<polygon fill="black" stroke="black" points="184.158,-143.954 175.175,-150.245 179.246,-144.889 174.334,-145.824 174.334,-145.824 174.334,-145.824 179.246,-144.889 173.493,-141.403 184.158,-143.954 184.158,-143.954"/>
<text text-anchor="middle" x="167.931" y="-152.646" font-family="Helvetica,sans-Serif" font-size="10.00">1</text>
<text text-anchor="middle" x="117.563" y="-145.024" font-family="Helvetica,sans-Serif" font-size="10.00">n</text>
</g>
<!-- A7 -->
<g id="node8" class="node"><title>A7</title>
<polygon fill="none" stroke="black" points="184.189,-66 184.189,-102 238.189,-102 238.189,-66 184.189,-66"/>
<text text-anchor="middle" x="211.189" y="-81" font-family="Helvetica,sans-Serif" font-size="10.00">Food</text>
</g>
<!-- A2&#45;&gt;A7 -->
<g id="edge5" class="edge"><title>A2&#45;&gt;A7</title>
<path fill="none" stroke="black" d="M110.139,-140.444C131.301,-128.505 155.838,-114.662 175.317,-103.673"/>
<polygon fill="black" stroke="black" points="101.336,-145.409 107.835,-136.576 105.691,-142.953 110.046,-140.496 110.046,-140.496 110.046,-140.496 105.691,-142.953 112.257,-144.415 101.336,-145.409 101.336,-145.409"/>
<polygon fill="black" stroke="black" points="184.158,-98.6857 177.659,-107.519 179.803,-101.142 175.448,-103.599 175.448,-103.599 175.448,-103.599 179.803,-101.142 173.237,-99.6799 184.158,-98.6857 184.158,-98.6857"/>
<text text-anchor="middle" x="172.524" y="-111.954" font-family="Helvetica,sans-Serif" font-size="10.00">1</text>
<text text-anchor="middle" x="112.97" y="-126.141" font-family="Helvetica,sans-Serif" font-size="10.00">n</text>
</g>
<!-- A8 -->
<g id="node9" class="node"><title>A8</title>
<polygon fill="none" stroke="black" points="180.521,-11 180.521,-47 241.856,-47 241.856,-11 180.521,-11"/>
<text text-anchor="middle" x="211.189" y="-26" font-family="Helvetica,sans-Serif" font-size="10.00">Service</text>
</g>
<!-- A2&#45;&gt;A8 -->
<g id="edge6" class="edge"><title>A2&#45;&gt;A8</title>
<path fill="none" stroke="black" d="M108.469,-122.574C113.764,-117.339 119.076,-112.061 124.131,-107 146.564,-84.5421 150.246,-76.9072 174.131,-56 175.091,-55.1598 176.075,-54.317 177.076,-53.4753"/>
<polygon fill="black" stroke="black" points="101.286,-129.662 105.244,-119.435 104.845,-126.15 108.404,-122.638 108.404,-122.638 108.404,-122.638 104.845,-126.15 111.565,-125.841 101.286,-129.662 101.286,-129.662"/>
<polygon fill="black" stroke="black" points="184.97,-47.1087 180.011,-56.8893 181.078,-50.2476 177.186,-53.3865 177.186,-53.3865 177.186,-53.3865 181.078,-50.2476 174.361,-49.8838 184.97,-47.1087 184.97,-47.1087"/>
<text text-anchor="middle" x="176.167" y="-62.0672" font-family="Helvetica,sans-Serif" font-size="10.00">1</text>
<text text-anchor="middle" x="108.252" y="-107.914" font-family="Helvetica,sans-Serif" font-size="10.00">n</text>
</g>
<!-- A9 -->
<g id="node10" class="node"><title>A9</title>
<polygon fill="none" stroke="black" points="298.247,-341 298.247,-377 396.823,-377 396.823,-341 298.247,-341"/>
<text text-anchor="middle" x="347.535" y="-356" font-family="Helvetica,sans-Serif" font-size="10.00">FeedingRoutine</text>
</g>
<!-- A3&#45;&gt;A9 -->
<g id="edge7" class="edge"><title>A3&#45;&gt;A9</title>
<path fill="none" stroke="black" d="M247.835,-318.593C261.7,-324.269 277.882,-330.894 293.085,-337.118"/>
<polygon fill="black" stroke="black" points="238.411,-314.735 249.371,-314.359 243.038,-316.63 247.666,-318.524 247.666,-318.524 247.666,-318.524 243.038,-316.63 245.961,-322.688 238.411,-314.735 238.411,-314.735"/>
<polygon fill="black" stroke="black" points="302.395,-340.93 291.436,-341.305 297.768,-339.035 293.141,-337.141 293.141,-337.141 293.141,-337.141 297.768,-339.035 294.846,-332.976 302.395,-340.93 302.395,-340.93"/>
<text text-anchor="middle" x="282.418" y="-338.884" font-family="Helvetica,sans-Serif" font-size="10.00">1</text>
<text text-anchor="middle" x="258.388" y="-310.78" font-family="Helvetica,sans-Serif" font-size="10.00">n</text>
</g>
<!-- A10 -->
<g id="node11" class="node"><title>A10</title>
<polygon fill="none" stroke="black" points="314.918,-286 314.918,-322 380.152,-322 380.152,-286 314.918,-286"/>
<text text-anchor="middle" x="347.535" y="-301" font-family="Helvetica,sans-Serif" font-size="10.00">PetType</text>
</g>
<!-- A3&#45;&gt;A10 -->
<g id="edge8" class="edge"><title>A3&#45;&gt;A10</title>
<path fill="none" stroke="black" d="M248.414,-304C265.704,-304 286.496,-304 304.481,-304"/>
<polygon fill="black" stroke="black" points="238.411,-304 248.411,-299.5 243.411,-304 248.411,-304 248.411,-304 248.411,-304 243.411,-304 248.411,-308.5 238.411,-304 238.411,-304"/>
<polygon fill="black" stroke="black" points="314.698,-304 304.698,-308.5 309.698,-304 304.698,-304 304.698,-304 304.698,-304 309.698,-304 304.698,-299.5 314.698,-304 314.698,-304"/>
<text text-anchor="middle" x="296.572" y="-309.452" font-family="Helvetica,sans-Serif" font-size="10.00">1</text>
<text text-anchor="middle" x="256.537" y="-292.548" font-family="Helvetica,sans-Serif" font-size="10.00">n</text>
</g>
<!-- A11 -->
<g id="node12" class="node"><title>A11</title>
<polygon fill="none" stroke="black" points="317.698,-231 317.698,-267 377.372,-267 377.372,-231 317.698,-231"/>
<text text-anchor="middle" x="347.535" y="-246" font-family="Helvetica,sans-Serif" font-size="10.00">Region</text>
</g>
<!-- A4&#45;&gt;A11 -->
<g id="edge9" class="edge"><title>A4&#45;&gt;A11</title>
<path fill="none" stroke="black" d="M258.753,-249C274.575,-249 292.086,-249 307.279,-249"/>
<polygon fill="black" stroke="black" points="248.545,-249 258.545,-244.5 253.545,-249 258.545,-249 258.545,-249 258.545,-249 253.545,-249 258.545,-253.5 248.545,-249 248.545,-249"/>
<polygon fill="black" stroke="black" points="317.377,-249 307.377,-253.5 312.377,-249 307.377,-249 307.377,-249 307.377,-249 312.377,-249 307.377,-244.5 317.377,-249 317.377,-249"/>
<text text-anchor="middle" x="299.251" y="-254.452" font-family="Helvetica,sans-Serif" font-size="10.00">1</text>
<text text-anchor="middle" x="266.671" y="-237.548" font-family="Helvetica,sans-Serif" font-size="10.00">n</text>
</g>
<!-- A12 -->
<g id="node13" class="node"><title>A12</title>
<polygon fill="none" stroke="black" points="29.455,-236 29.455,-272 94.676,-272 94.676,-236 29.455,-236"/>
<text text-anchor="middle" x="62.0655" y="-251" font-family="Helvetica,sans-Serif" font-size="10.00">Nutrition</text>
</g>
<!-- A13 -->
<g id="node14" class="node"><title>A13</title>
<polygon fill="none" stroke="black" points="30.003,-291 30.003,-327 94.128,-327 94.128,-291 30.003,-291"/>
<text text-anchor="middle" x="62.0655" y="-306" font-family="Helvetica,sans-Serif" font-size="10.00">Account</text>
</g>
<!-- A14 -->
<g id="node15" class="node"><title>A14</title>
<polygon fill="none" stroke="black" points="18.8895,-346 18.8895,-382 105.241,-382 105.241,-346 18.8895,-346"/>
<text text-anchor="middle" x="62.0655" y="-361" font-family="Helvetica,sans-Serif" font-size="10.00">AccountType</text>
</g>
<!-- A15 -->
<g id="node16" class="node"><title>A15</title>
<polygon fill="none" stroke="black" points="27.783,-401 27.783,-437 96.348,-437 96.348,-401 27.783,-401"/>
<text text-anchor="middle" x="62.0655" y="-416" font-family="Helvetica,sans-Serif" font-size="10.00">Message</text>
</g>
<!-- A16 -->
<g id="node17" class="node"><title>A16</title>
<polygon fill="none" stroke="black" points="18.6155,-456 18.6155,-492 105.515,-492 105.515,-456 18.6155,-456"/>
<text text-anchor="middle" x="62.0655" y="-471" font-family="Helvetica,sans-Serif" font-size="10.00">Conversation</text>
</g>
<!-- A17 -->
<g id="node18" class="node"><title>A17</title>
<polygon fill="none" stroke="black" points="26.9495,-511 26.9495,-547 97.1815,-547 97.1815,-511 26.9495,-511"/>
<text text-anchor="middle" x="62.0655" y="-526" font-family="Helvetica,sans-Serif" font-size="10.00">Shipment</text>
</g>
<!-- A18 -->
<g id="node19" class="node"><title>A18</title>
<polygon fill="none" stroke="black" points="16.116,-566 16.116,-602 108.015,-602 108.015,-566 16.116,-566"/>
<text text-anchor="middle" x="62.0655" y="-581" font-family="Helvetica,sans-Serif" font-size="10.00">Advertisement</text>
</g>
</g>
</svg>
